<?xml version="1.0" encoding="UTF-8" standalone="no"?>
<!DOCTYPE svg PUBLIC "-//W3C//DTD SVG 1.1//EN"
 "http://www.w3.org/Graphics/SVG/1.1/DTD/svg11.dtd">
<!-- Generated by graphviz version 7.1.0 (20230121.1956)
 -->
<!-- Pages: 1 -->
<svg width="1485pt" height="548pt"
 viewBox="0.00 0.00 1484.76 548.00" xmlns="http://www.w3.org/2000/svg" xmlns:xlink="http://www.w3.org/1999/xlink">
<g id="graph0" class="graph" transform="scale(1 1) rotate(0) translate(4 544)">
<polygon fill="white" stroke="none" points="-4,4 -4,-544 1480.76,-544 1480.76,4 -4,4"/>
<!-- Seat Ibiza 1.2 white -->
<g id="node1" class="node">
<title>Seat Ibiza 1.2 white</title>
<ellipse fill="none" stroke="black" cx="1087.07" cy="-306" rx="81.49" ry="18"/>
<text text-anchor="middle" x="1087.07" y="-302.3" font-family="Times New Roman,serif" font-size="14.00">Seat Ibiza 1.2 white</text>
</g>
<!-- Seat Ibiza 1.4 green -->
<g id="node2" class="node">
<title>Seat Ibiza 1.4 green</title>
<ellipse fill="none" stroke="black" cx="978.07" cy="-234" rx="81.79" ry="18"/>
<text text-anchor="middle" x="978.07" y="-230.3" font-family="Times New Roman,serif" font-size="14.00">Seat Ibiza 1.4 green</text>
</g>
<!-- Seat Ibiza 1.2 white&#45;&gt;Seat Ibiza 1.4 green -->
<g id="edge40" class="edge">
<title>Seat Ibiza 1.2 white&#45;&gt;Seat Ibiza 1.4 green</title>
<path fill="none" stroke="black" d="M1061.51,-288.59C1047.13,-279.35 1028.96,-267.68 1013.25,-257.59"/>
<polygon fill="black" stroke="black" points="1015.42,-254.83 1005.12,-252.37 1011.64,-260.72 1015.42,-254.83"/>
</g>
<!-- Skoda Fabia grey -->
<g id="node3" class="node">
<title>Skoda Fabia grey</title>
<ellipse fill="none" stroke="black" cx="269.07" cy="-162" rx="74.99" ry="18"/>
<text text-anchor="middle" x="269.07" y="-158.3" font-family="Times New Roman,serif" font-size="14.00">Skoda Fabia grey</text>
</g>
<!-- Seat Ibiza 1.2 white&#45;&gt;Skoda Fabia grey -->
<g id="edge44" class="edge">
<title>Seat Ibiza 1.2 white&#45;&gt;Skoda Fabia grey</title>
<path fill="none" stroke="black" d="M1089.17,-287.59C1090.56,-267.1 1089.24,-233.64 1069.07,-216 1042.49,-192.75 555.33,-173.06 354.51,-165.89"/>
<polygon fill="black" stroke="black" points="354.78,-162.4 344.66,-165.54 354.53,-169.39 354.78,-162.4"/>
</g>
<!-- Nissan Note grey -->
<g id="node4" class="node">
<title>Nissan Note grey</title>
<ellipse fill="none" stroke="black" cx="1303.07" cy="-234" rx="73.39" ry="18"/>
<text text-anchor="middle" x="1303.07" y="-230.3" font-family="Times New Roman,serif" font-size="14.00">Nissan Note grey</text>
</g>
<!-- Seat Ibiza 1.2 white&#45;&gt;Nissan Note grey -->
<g id="edge37" class="edge">
<title>Seat Ibiza 1.2 white&#45;&gt;Nissan Note grey</title>
<path fill="none" stroke="black" d="M1131.56,-290.58C1165.7,-279.52 1212.96,-264.2 1249.23,-252.45"/>
<polygon fill="black" stroke="black" points="1250.23,-255.8 1258.67,-249.39 1248.07,-249.14 1250.23,-255.8"/>
</g>
<!-- Volkswagen Polo 1.2 white -->
<g id="node9" class="node">
<title>Volkswagen Polo 1.2 white</title>
<ellipse fill="none" stroke="black" cx="982.07" cy="-162" rx="109.68" ry="18"/>
<text text-anchor="middle" x="982.07" y="-158.3" font-family="Times New Roman,serif" font-size="14.00">Volkswagen Polo 1.2 white</text>
</g>
<!-- Seat Ibiza 1.2 white&#45;&gt;Volkswagen Polo 1.2 white -->
<g id="edge47" class="edge">
<title>Seat Ibiza 1.2 white&#45;&gt;Volkswagen Polo 1.2 white</title>
<path fill="none" stroke="black" d="M1108.97,-288.39C1130.37,-270.1 1157.4,-240.09 1140.07,-216 1126.07,-196.53 1104.57,-184.12 1081.9,-176.23"/>
<polygon fill="black" stroke="black" points="1083.1,-172.93 1072.51,-173.26 1081,-179.61 1083.1,-172.93"/>
</g>
<!-- Toyota Yaris 1.0 white -->
<g id="node10" class="node">
<title>Toyota Yaris 1.0 white</title>
<ellipse fill="none" stroke="black" cx="785.07" cy="-234" rx="93.68" ry="18"/>
<text text-anchor="middle" x="785.07" y="-230.3" font-family="Times New Roman,serif" font-size="14.00">Toyota Yaris 1.0 white</text>
</g>
<!-- Seat Ibiza 1.2 white&#45;&gt;Toyota Yaris 1.0 white -->
<g id="edge52" class="edge">
<title>Seat Ibiza 1.2 white&#45;&gt;Toyota Yaris 1.0 white</title>
<path fill="none" stroke="black" d="M1032.38,-292.32C982.47,-280.76 908.47,-263.6 854.43,-251.08"/>
<polygon fill="black" stroke="black" points="855.22,-247.67 844.69,-248.82 853.64,-254.49 855.22,-247.67"/>
</g>
<!-- MINI Cooper 1.6 blue -->
<g id="node5" class="node">
<title>MINI Cooper 1.6 blue</title>
<ellipse fill="none" stroke="black" cx="594.07" cy="-90" rx="92.08" ry="18"/>
<text text-anchor="middle" x="594.07" y="-86.3" font-family="Times New Roman,serif" font-size="14.00">MINI Cooper 1.6 blue</text>
</g>
<!-- Seat Ibiza 1.4 green&#45;&gt;MINI Cooper 1.6 blue -->
<g id="edge20" class="edge">
<title>Seat Ibiza 1.4 green&#45;&gt;MINI Cooper 1.6 blue</title>
<path fill="none" stroke="black" d="M933.25,-218.65C901.5,-208.31 857.99,-193.82 820.07,-180 758.45,-157.55 688.28,-129.53 642.7,-110.99"/>
<polygon fill="black" stroke="black" points="644.21,-107.83 633.63,-107.29 641.57,-114.31 644.21,-107.83"/>
</g>
<!-- Seat Ibiza 1.4 green&#45;&gt;Volkswagen Polo 1.2 white -->
<g id="edge48" class="edge">
<title>Seat Ibiza 1.4 green&#45;&gt;Volkswagen Polo 1.2 white</title>
<path fill="none" stroke="black" d="M979.06,-215.7C979.47,-208.41 979.97,-199.73 980.44,-191.54"/>
<polygon fill="black" stroke="black" points="983.93,-191.8 981,-181.62 976.94,-191.4 983.93,-191.8"/>
</g>
<!-- Abarth Grande Punto white -->
<g id="node11" class="node">
<title>Abarth Grande Punto white</title>
<ellipse fill="none" stroke="black" cx="373.07" cy="-90" rx="110.48" ry="18"/>
<text text-anchor="middle" x="373.07" y="-86.3" font-family="Times New Roman,serif" font-size="14.00">Abarth Grande Punto white</text>
</g>
<!-- Seat Ibiza 1.4 green&#45;&gt;Abarth Grande Punto white -->
<g id="edge28" class="edge">
<title>Seat Ibiza 1.4 green&#45;&gt;Abarth Grande Punto white</title>
<path fill="none" stroke="black" d="M917.29,-221.63C865.26,-211.6 788.45,-196.11 722.07,-180 664.22,-165.96 650.68,-158.97 593.07,-144 544.2,-131.3 488.95,-117.99 446.05,-107.89"/>
<polygon fill="black" stroke="black" points="446.86,-104.49 436.33,-105.61 445.26,-111.3 446.86,-104.49"/>
</g>
<!-- Hyundai i20 white -->
<g id="node14" class="node">
<title>Hyundai i20 white</title>
<ellipse fill="none" stroke="black" cx="780.07" cy="-90" rx="75.29" ry="18"/>
<text text-anchor="middle" x="780.07" y="-86.3" font-family="Times New Roman,serif" font-size="14.00">Hyundai i20 white</text>
</g>
<!-- Seat Ibiza 1.4 green&#45;&gt;Hyundai i20 white -->
<g id="edge12" class="edge">
<title>Seat Ibiza 1.4 green&#45;&gt;Hyundai i20 white</title>
<path fill="none" stroke="black" d="M936.04,-218.22C913.28,-209.12 885.34,-196.1 863.07,-180 838.35,-162.13 815.11,-136.11 799.55,-116.81"/>
<polygon fill="black" stroke="black" points="802.43,-114.82 793.49,-109.13 796.94,-119.15 802.43,-114.82"/>
</g>
<!-- Skoda Fabia grey&#45;&gt;MINI Cooper 1.6 blue -->
<g id="edge21" class="edge">
<title>Skoda Fabia grey&#45;&gt;MINI Cooper 1.6 blue</title>
<path fill="none" stroke="black" d="M323.47,-149.28C378.16,-137.5 462.75,-119.28 522.78,-106.35"/>
<polygon fill="black" stroke="black" points="523.17,-109.85 532.21,-104.32 521.7,-103.01 523.17,-109.85"/>
</g>
<!-- Skoda Fabia grey&#45;&gt;Abarth Grande Punto white -->
<g id="edge29" class="edge">
<title>Skoda Fabia grey&#45;&gt;Abarth Grande Punto white</title>
<path fill="none" stroke="black" d="M293.45,-144.59C306.95,-135.51 323.94,-124.07 338.75,-114.1"/>
<polygon fill="black" stroke="black" points="340.52,-117.13 346.86,-108.64 336.61,-111.32 340.52,-117.13"/>
</g>
<!-- Toyota Prius black -->
<g id="node18" class="node">
<title>Toyota Prius black</title>
<ellipse fill="none" stroke="black" cx="285.07" cy="-18" rx="79.89" ry="18"/>
<text text-anchor="middle" x="285.07" y="-14.3" font-family="Times New Roman,serif" font-size="14.00">Toyota Prius black</text>
</g>
<!-- Skoda Fabia grey&#45;&gt;Toyota Prius black -->
<g id="edge2" class="edge">
<title>Skoda Fabia grey&#45;&gt;Toyota Prius black</title>
<path fill="none" stroke="black" d="M247.86,-144.25C237.67,-134.83 226.52,-122.13 221.07,-108 215.31,-93.07 214.26,-86.48 221.07,-72 226.67,-60.09 236.41,-49.93 246.63,-41.79"/>
<polygon fill="black" stroke="black" points="248.44,-44.81 254.42,-36.07 244.29,-39.17 248.44,-44.81"/>
</g>
<!-- Mercedes w116 brown -->
<g id="node20" class="node">
<title>Mercedes w116 brown</title>
<ellipse fill="none" stroke="black" cx="477.07" cy="-18" rx="94.48" ry="18"/>
<text text-anchor="middle" x="477.07" y="-14.3" font-family="Times New Roman,serif" font-size="14.00">Mercedes w116 brown</text>
</g>
<!-- Skoda Fabia grey&#45;&gt;Mercedes w116 brown -->
<g id="edge7" class="edge">
<title>Skoda Fabia grey&#45;&gt;Mercedes w116 brown</title>
<path fill="none" stroke="black" d="M259.18,-144C249.31,-124.53 237.75,-92.65 254.07,-72 263.27,-60.35 337.51,-44.28 397.84,-32.89"/>
<polygon fill="black" stroke="black" points="398.25,-36.38 407.43,-31.1 396.96,-29.5 398.25,-36.38"/>
</g>
<!-- Nissan Note grey&#45;&gt;MINI Cooper 1.6 blue -->
<g id="edge19" class="edge">
<title>Nissan Note grey&#45;&gt;MINI Cooper 1.6 blue</title>
<path fill="none" stroke="black" d="M1287.67,-215.93C1267.41,-194.77 1229.6,-159.62 1189.07,-144 1086.57,-104.49 805.14,-121.04 696.07,-108 688.04,-107.04 679.68,-105.89 671.36,-104.65"/>
<polygon fill="black" stroke="black" points="671.97,-101.2 661.55,-103.14 670.9,-108.12 671.97,-101.2"/>
</g>
<!-- Nissan Note grey&#45;&gt;Abarth Grande Punto white -->
<g id="edge27" class="edge">
<title>Nissan Note grey&#45;&gt;Abarth Grande Punto white</title>
<path fill="none" stroke="black" d="M1269.9,-217.61C1217.18,-193.27 1118.39,-148.19 1101.07,-144 837.94,-80.42 762.41,-135.01 493.07,-108 483.15,-107.01 472.8,-105.8 462.5,-104.49"/>
<polygon fill="black" stroke="black" points="463.26,-101.06 452.89,-103.23 462.35,-108 463.26,-101.06"/>
</g>
<!-- Nissan Note grey&#45;&gt;Hyundai i20 white -->
<g id="edge11" class="edge">
<title>Nissan Note grey&#45;&gt;Hyundai i20 white</title>
<path fill="none" stroke="black" d="M1298.94,-215.63C1293.01,-194.86 1279.95,-160.79 1255.07,-144 1193.6,-102.52 986.42,-93.13 866.96,-91.23"/>
<polygon fill="black" stroke="black" points="867.24,-87.74 857.2,-91.09 867.14,-94.74 867.24,-87.74"/>
</g>
<!-- MINI Cooper 1.6 blue&#45;&gt;Toyota Prius black -->
<g id="edge3" class="edge">
<title>MINI Cooper 1.6 blue&#45;&gt;Toyota Prius black</title>
<path fill="none" stroke="black" d="M535.58,-75.75C482.96,-63.83 405.71,-46.33 350.93,-33.92"/>
<polygon fill="black" stroke="black" points="351.94,-30.56 341.42,-31.77 350.4,-37.39 351.94,-30.56"/>
</g>
<!-- MINI Cooper 1.6 blue&#45;&gt;Mercedes w116 brown -->
<g id="edge8" class="edge">
<title>MINI Cooper 1.6 blue&#45;&gt;Mercedes w116 brown</title>
<path fill="none" stroke="black" d="M566.34,-72.41C550.75,-63.08 531.08,-51.32 514.18,-41.2"/>
<polygon fill="black" stroke="black" points="516.27,-38.38 505.9,-36.25 512.68,-44.38 516.27,-38.38"/>
</g>
<!-- Opel Corsa white -->
<g id="node6" class="node">
<title>Opel Corsa white</title>
<ellipse fill="none" stroke="black" cx="1374.07" cy="-306" rx="74.19" ry="18"/>
<text text-anchor="middle" x="1374.07" y="-302.3" font-family="Times New Roman,serif" font-size="14.00">Opel Corsa white</text>
</g>
<!-- Opel Corsa white&#45;&gt;Nissan Note grey -->
<g id="edge36" class="edge">
<title>Opel Corsa white&#45;&gt;Nissan Note grey</title>
<path fill="none" stroke="black" d="M1356.88,-288.05C1348.25,-279.54 1337.62,-269.07 1328.1,-259.68"/>
<polygon fill="black" stroke="black" points="1330.75,-257.38 1321.18,-252.85 1325.84,-262.36 1330.75,-257.38"/>
</g>
<!-- Toyota Yaris 1.3 grey -->
<g id="node7" class="node">
<title>Toyota Yaris 1.3 grey</title>
<ellipse fill="none" stroke="black" cx="1020.07" cy="-378" rx="90.18" ry="18"/>
<text text-anchor="middle" x="1020.07" y="-374.3" font-family="Times New Roman,serif" font-size="14.00">Toyota Yaris 1.3 grey</text>
</g>
<!-- Toyota Yaris 1.3 grey&#45;&gt;Seat Ibiza 1.2 white -->
<g id="edge65" class="edge">
<title>Toyota Yaris 1.3 grey&#45;&gt;Seat Ibiza 1.2 white</title>
<path fill="none" stroke="black" d="M1036.29,-360.05C1044.35,-351.63 1054.26,-341.28 1063.17,-331.97"/>
<polygon fill="black" stroke="black" points="1065.57,-334.53 1069.95,-324.88 1060.51,-329.69 1065.57,-334.53"/>
</g>
<!-- Toyota Yaris 1.3 grey&#45;&gt;Seat Ibiza 1.4 green -->
<g id="edge66" class="edge">
<title>Toyota Yaris 1.3 grey&#45;&gt;Seat Ibiza 1.4 green</title>
<path fill="none" stroke="black" d="M1011.51,-359.67C1006.73,-349.48 1000.98,-336.23 997.07,-324 990.73,-304.19 985.88,-281.23 982.67,-263.59"/>
<polygon fill="black" stroke="black" points="986.14,-263.07 980.97,-253.82 979.24,-264.27 986.14,-263.07"/>
</g>
<!-- Toyota Yaris 1.3 grey&#45;&gt;Skoda Fabia grey -->
<g id="edge67" class="edge">
<title>Toyota Yaris 1.3 grey&#45;&gt;Skoda Fabia grey</title>
<path fill="none" stroke="black" d="M974.44,-362.03C883.29,-332.36 671.98,-264.76 492.07,-216 439.13,-201.65 378.56,-187.39 333.92,-177.28"/>
<polygon fill="black" stroke="black" points="334.93,-173.92 324.4,-175.14 333.39,-180.75 334.93,-173.92"/>
</g>
<!-- Toyota Yaris 1.3 grey&#45;&gt;Opel Corsa white -->
<g id="edge64" class="edge">
<title>Toyota Yaris 1.3 grey&#45;&gt;Opel Corsa white</title>
<path fill="none" stroke="black" d="M1082.54,-364.65C1145.36,-352.22 1241.92,-333.13 1306.49,-320.36"/>
<polygon fill="black" stroke="black" points="1307.15,-323.8 1316.28,-318.43 1305.79,-316.93 1307.15,-323.8"/>
</g>
<!-- Toyota Yaris 1.3 grey&#45;&gt;Volkswagen Polo 1.2 white -->
<g id="edge69" class="edge">
<title>Toyota Yaris 1.3 grey&#45;&gt;Volkswagen Polo 1.2 white</title>
<path fill="none" stroke="black" d="M1099.88,-369.35C1129.03,-362.24 1159.2,-348.89 1177.07,-324 1186.4,-311 1179.33,-303.84 1177.07,-288 1172.35,-255 1179.5,-239.71 1156.07,-216 1136.27,-195.96 1109.14,-183.45 1082.19,-175.66"/>
<polygon fill="black" stroke="black" points="1083.11,-172.28 1072.54,-173.09 1081.31,-179.05 1083.11,-172.28"/>
</g>
<!-- Toyota Yaris 1.3 grey&#45;&gt;Toyota Yaris 1.0 white -->
<g id="edge70" class="edge">
<title>Toyota Yaris 1.3 grey&#45;&gt;Toyota Yaris 1.0 white</title>
<path fill="none" stroke="black" d="M992.65,-360.43C950.49,-334.96 869.65,-286.11 822.26,-257.47"/>
<polygon fill="black" stroke="black" points="824.34,-254.64 813.97,-252.46 820.72,-260.63 824.34,-254.64"/>
</g>
<!-- Citroen DS3 red -->
<g id="node8" class="node">
<title>Citroen DS3 red</title>
<ellipse fill="none" stroke="black" cx="802.07" cy="-450" rx="70.39" ry="18"/>
<text text-anchor="middle" x="802.07" y="-446.3" font-family="Times New Roman,serif" font-size="14.00">Citroen DS3 red</text>
</g>
<!-- Citroen DS3 red&#45;&gt;Seat Ibiza 1.2 white -->
<g id="edge72" class="edge">
<title>Citroen DS3 red&#45;&gt;Seat Ibiza 1.2 white</title>
<path fill="none" stroke="black" d="M872.05,-447.45C955.62,-443.96 1088.06,-432.62 1119.07,-396 1134.32,-377.99 1122.36,-352.15 1108.94,-332.95"/>
<polygon fill="black" stroke="black" points="1111.83,-330.98 1103.04,-325.07 1106.23,-335.17 1111.83,-330.98"/>
</g>
<!-- Citroen DS3 red&#45;&gt;Seat Ibiza 1.4 green -->
<g id="edge73" class="edge">
<title>Citroen DS3 red&#45;&gt;Seat Ibiza 1.4 green</title>
<path fill="none" stroke="black" d="M815.88,-432.21C846.52,-394.95 920.36,-305.17 956.88,-260.76"/>
<polygon fill="black" stroke="black" points="959.47,-263.13 963.12,-253.18 954.06,-258.68 959.47,-263.13"/>
</g>
<!-- Citroen DS3 red&#45;&gt;Skoda Fabia grey -->
<g id="edge74" class="edge">
<title>Citroen DS3 red&#45;&gt;Skoda Fabia grey</title>
<path fill="none" stroke="black" d="M734.06,-445.17C620.67,-438.17 398.14,-421.62 324.07,-396 266.72,-376.17 239.39,-375.97 208.07,-324 183.27,-282.84 182.29,-259.33 203.07,-216 208.92,-203.8 219.09,-193.53 229.72,-185.37"/>
<polygon fill="black" stroke="black" points="231.71,-188.25 237.85,-179.62 227.67,-182.53 231.71,-188.25"/>
</g>
<!-- Citroen DS3 red&#45;&gt;Toyota Yaris 1.3 grey -->
<g id="edge75" class="edge">
<title>Citroen DS3 red&#45;&gt;Toyota Yaris 1.3 grey</title>
<path fill="none" stroke="black" d="M844.62,-435.34C878.45,-424.47 926.1,-409.17 963.2,-397.26"/>
<polygon fill="black" stroke="black" points="963.97,-400.69 972.42,-394.3 961.82,-394.03 963.97,-400.69"/>
</g>
<!-- Citroen DS3 red&#45;&gt;Toyota Yaris 1.0 white -->
<g id="edge76" class="edge">
<title>Citroen DS3 red&#45;&gt;Toyota Yaris 1.0 white</title>
<path fill="none" stroke="black" d="M800.71,-431.85C797.79,-395.14 790.92,-308.66 787.34,-263.53"/>
<polygon fill="black" stroke="black" points="790.84,-263.43 786.56,-253.74 783.86,-263.99 790.84,-263.43"/>
</g>
<!-- MINI Cooper 1.5 grey -->
<g id="node12" class="node">
<title>MINI Cooper 1.5 grey</title>
<ellipse fill="none" stroke="black" cx="390.07" cy="-234" rx="92.88" ry="18"/>
<text text-anchor="middle" x="390.07" y="-230.3" font-family="Times New Roman,serif" font-size="14.00">MINI Cooper 1.5 grey</text>
</g>
<!-- Citroen DS3 red&#45;&gt;MINI Cooper 1.5 grey -->
<g id="edge77" class="edge">
<title>Citroen DS3 red&#45;&gt;MINI Cooper 1.5 grey</title>
<path fill="none" stroke="black" d="M731.51,-448.68C651.26,-446.23 517.45,-435.79 410.07,-396 354.93,-375.57 327.14,-375.67 299.07,-324 291.43,-309.94 291.09,-301.87 299.07,-288 307.21,-273.83 320.76,-263.1 334.95,-255.13"/>
<polygon fill="black" stroke="black" points="336.18,-258.43 343.47,-250.73 332.98,-252.2 336.18,-258.43"/>
</g>
<!-- Volkswagen Polo 1.2 red -->
<g id="node13" class="node">
<title>Volkswagen Polo 1.2 red</title>
<ellipse fill="none" stroke="black" cx="1374.07" cy="-378" rx="102.88" ry="18"/>
<text text-anchor="middle" x="1374.07" y="-374.3" font-family="Times New Roman,serif" font-size="14.00">Volkswagen Polo 1.2 red</text>
</g>
<!-- Citroen DS3 red&#45;&gt;Volkswagen Polo 1.2 red -->
<g id="edge71" class="edge">
<title>Citroen DS3 red&#45;&gt;Volkswagen Polo 1.2 red</title>
<path fill="none" stroke="black" d="M864.64,-441.34C965.18,-429.04 1163.25,-404.8 1280.6,-390.44"/>
<polygon fill="black" stroke="black" points="1280.69,-393.95 1290.2,-389.26 1279.84,-387 1280.69,-393.95"/>
</g>
<!-- Jaguar xj red -->
<g id="node22" class="node">
<title>Jaguar xj red</title>
<ellipse fill="none" stroke="black" cx="70.07" cy="-162" rx="56.59" ry="18"/>
<text text-anchor="middle" x="70.07" y="-158.3" font-family="Times New Roman,serif" font-size="14.00">Jaguar xj red</text>
</g>
<!-- Citroen DS3 red&#45;&gt;Jaguar xj red -->
<g id="edge78" class="edge">
<title>Citroen DS3 red&#45;&gt;Jaguar xj red</title>
<path fill="none" stroke="black" d="M731.51,-449.44C553.83,-448.84 95.73,-436.23 6.07,-324 -3.68,-311.8 -0.7,-240.11 11.07,-216 16.8,-204.25 26.4,-193.93 36.2,-185.59"/>
<polygon fill="black" stroke="black" points="38.3,-188.39 43.97,-179.44 33.96,-182.9 38.3,-188.39"/>
</g>
<!-- Volkswagen Polo 1.2 white&#45;&gt;MINI Cooper 1.6 blue -->
<g id="edge22" class="edge">
<title>Volkswagen Polo 1.2 white&#45;&gt;MINI Cooper 1.6 blue</title>
<path fill="none" stroke="black" d="M910.45,-148.08C842.63,-135.84 741.07,-117.52 671.42,-104.95"/>
<polygon fill="black" stroke="black" points="672.04,-101.51 661.58,-103.18 670.8,-108.4 672.04,-101.51"/>
</g>
<!-- Volkswagen Polo 1.2 white&#45;&gt;Abarth Grande Punto white -->
<g id="edge30" class="edge">
<title>Volkswagen Polo 1.2 white&#45;&gt;Abarth Grande Punto white</title>
<path fill="none" stroke="black" d="M890.04,-151.93C791.66,-142.03 631.18,-125.26 493.07,-108 483.84,-106.85 474.22,-105.58 464.62,-104.29"/>
<polygon fill="black" stroke="black" points="465.26,-100.84 454.88,-102.95 464.32,-107.78 465.26,-100.84"/>
</g>
<!-- Volkswagen Polo 1.2 white&#45;&gt;Hyundai i20 white -->
<g id="edge13" class="edge">
<title>Volkswagen Polo 1.2 white&#45;&gt;Hyundai i20 white</title>
<path fill="none" stroke="black" d="M936.48,-145.2C905.54,-134.48 864.54,-120.27 832.28,-109.09"/>
<polygon fill="black" stroke="black" points="833.73,-105.89 823.14,-105.92 831.44,-112.51 833.73,-105.89"/>
</g>
<!-- Toyota Yaris 1.0 white&#45;&gt;MINI Cooper 1.6 blue -->
<g id="edge23" class="edge">
<title>Toyota Yaris 1.0 white&#45;&gt;MINI Cooper 1.6 blue</title>
<path fill="none" stroke="black" d="M762.41,-216.15C728.52,-190.96 664.51,-143.37 625.93,-114.68"/>
<polygon fill="black" stroke="black" points="628.03,-111.89 617.91,-108.73 623.85,-117.5 628.03,-111.89"/>
</g>
<!-- Toyota Yaris 1.0 white&#45;&gt;Abarth Grande Punto white -->
<g id="edge31" class="edge">
<title>Toyota Yaris 1.0 white&#45;&gt;Abarth Grande Punto white</title>
<path fill="none" stroke="black" d="M740.98,-217.8C665.68,-191.85 512.43,-139.03 429.46,-110.44"/>
<polygon fill="black" stroke="black" points="430.75,-107.18 420.15,-107.23 428.47,-113.8 430.75,-107.18"/>
</g>
<!-- Toyota Yaris 1.0 white&#45;&gt;Hyundai i20 white -->
<g id="edge14" class="edge">
<title>Toyota Yaris 1.0 white&#45;&gt;Hyundai i20 white</title>
<path fill="none" stroke="black" d="M784.46,-215.59C783.61,-191.61 782.08,-148.14 781.07,-119.42"/>
<polygon fill="black" stroke="black" points="784.57,-119.49 780.72,-109.62 777.58,-119.74 784.57,-119.49"/>
</g>
<!-- Abarth Grande Punto white&#45;&gt;Toyota Prius black -->
<g id="edge4" class="edge">
<title>Abarth Grande Punto white&#45;&gt;Toyota Prius black</title>
<path fill="none" stroke="black" d="M351.77,-72.05C340.74,-63.28 327.1,-52.43 315.03,-42.83"/>
<polygon fill="black" stroke="black" points="317.36,-40.22 307.36,-36.73 313.01,-45.7 317.36,-40.22"/>
</g>
<!-- Abarth Grande Punto white&#45;&gt;Mercedes w116 brown -->
<g id="edge9" class="edge">
<title>Abarth Grande Punto white&#45;&gt;Mercedes w116 brown</title>
<path fill="none" stroke="black" d="M398.24,-72.05C411.66,-63.03 428.35,-51.79 442.92,-41.99"/>
<polygon fill="black" stroke="black" points="444.53,-45.12 450.87,-36.63 440.62,-39.31 444.53,-45.12"/>
</g>
<!-- MINI Cooper 1.5 grey&#45;&gt;Skoda Fabia grey -->
<g id="edge17" class="edge">
<title>MINI Cooper 1.5 grey&#45;&gt;Skoda Fabia grey</title>
<path fill="none" stroke="black" d="M361.39,-216.41C344.88,-206.86 323.95,-194.75 306.2,-184.48"/>
<polygon fill="black" stroke="black" points="308.42,-181.72 298.02,-179.75 304.92,-187.78 308.42,-181.72"/>
</g>
<!-- MINI Cooper 1.5 grey&#45;&gt;MINI Cooper 1.6 blue -->
<g id="edge24" class="edge">
<title>MINI Cooper 1.5 grey&#45;&gt;MINI Cooper 1.6 blue</title>
<path fill="none" stroke="black" d="M398.18,-215.92C408.4,-196.07 427.74,-163.54 453.07,-144 474.17,-127.72 500.82,-116 525.25,-107.79"/>
<polygon fill="black" stroke="black" points="526.03,-111.22 534.49,-104.84 523.9,-104.55 526.03,-111.22"/>
</g>
<!-- MINI Cooper 1.5 grey&#45;&gt;Abarth Grande Punto white -->
<g id="edge32" class="edge">
<title>MINI Cooper 1.5 grey&#45;&gt;Abarth Grande Punto white</title>
<path fill="none" stroke="black" d="M387.98,-215.59C385.11,-191.61 379.91,-148.14 376.47,-119.42"/>
<polygon fill="black" stroke="black" points="379.96,-119.13 375.3,-109.61 373.01,-119.96 379.96,-119.13"/>
</g>
<!-- MINI Cooper 1.5 grey&#45;&gt;Hyundai i20 white -->
<g id="edge15" class="edge">
<title>MINI Cooper 1.5 grey&#45;&gt;Hyundai i20 white</title>
<path fill="none" stroke="black" d="M426.87,-217.14C470.46,-198.6 545.44,-167.46 611.07,-144 647.88,-130.84 689.81,-117.68 722.69,-107.77"/>
<polygon fill="black" stroke="black" points="723.45,-111.19 732.03,-104.97 721.44,-104.49 723.45,-111.19"/>
</g>
<!-- Volkswagen Polo 1.2 red&#45;&gt;Opel Corsa white -->
<g id="edge63" class="edge">
<title>Volkswagen Polo 1.2 red&#45;&gt;Opel Corsa white</title>
<path fill="none" stroke="black" d="M1374.07,-359.7C1374.07,-352.41 1374.07,-343.73 1374.07,-335.54"/>
<polygon fill="black" stroke="black" points="1377.57,-335.62 1374.07,-325.62 1370.57,-335.62 1377.57,-335.62"/>
</g>
<!-- Volkswagen Polo 1.2 red&#45;&gt;Volkswagen Polo 1.2 white -->
<g id="edge68" class="edge">
<title>Volkswagen Polo 1.2 red&#45;&gt;Volkswagen Polo 1.2 white</title>
<path fill="none" stroke="black" d="M1415.01,-361.27C1431.13,-352.82 1447.95,-340.64 1457.07,-324 1484.79,-273.41 1436.81,-241.51 1385.07,-216 1335.58,-191.6 1196.16,-177.23 1095.16,-169.74"/>
<polygon fill="black" stroke="black" points="1095.7,-166.28 1085.47,-169.04 1095.19,-173.26 1095.7,-166.28"/>
</g>
<!-- Hyundai i20 white&#45;&gt;Toyota Prius black -->
<g id="edge1" class="edge">
<title>Hyundai i20 white&#45;&gt;Toyota Prius black</title>
<path fill="none" stroke="black" d="M725.32,-77.33C715.29,-75.4 704.88,-73.53 695.07,-72 553.22,-49.9 516.01,-57.48 374.07,-36 367.59,-35.02 360.87,-33.91 354.15,-32.74"/>
<polygon fill="black" stroke="black" points="354.84,-29.3 344.38,-30.98 353.6,-36.19 354.84,-29.3"/>
</g>
<!-- Hyundai i20 white&#45;&gt;Mercedes w116 brown -->
<g id="edge6" class="edge">
<title>Hyundai i20 white&#45;&gt;Mercedes w116 brown</title>
<path fill="none" stroke="black" d="M727.29,-76.81C677.24,-65.25 601.74,-47.8 546.76,-35.1"/>
<polygon fill="black" stroke="black" points="547.71,-31.73 537.18,-32.89 546.14,-38.55 547.71,-31.73"/>
</g>
<!-- Peugeot 208 red -->
<g id="node15" class="node">
<title>Peugeot 208 red</title>
<ellipse fill="none" stroke="black" cx="492.07" cy="-522" rx="69.59" ry="18"/>
<text text-anchor="middle" x="492.07" y="-518.3" font-family="Times New Roman,serif" font-size="14.00">Peugeot 208 red</text>
</g>
<!-- Peugeot 208 red&#45;&gt;Citroen DS3 red -->
<g id="edge80" class="edge">
<title>Peugeot 208 red&#45;&gt;Citroen DS3 red</title>
<path fill="none" stroke="black" d="M543.26,-509.44C597.03,-497.3 681.64,-478.19 739.37,-465.16"/>
<polygon fill="black" stroke="black" points="740.08,-468.58 749.07,-462.97 738.54,-461.76 740.08,-468.58"/>
</g>
<!-- Audi A1 black -->
<g id="node16" class="node">
<title>Audi A1 black</title>
<ellipse fill="none" stroke="black" cx="483.07" cy="-378" rx="63.89" ry="18"/>
<text text-anchor="middle" x="483.07" y="-374.3" font-family="Times New Roman,serif" font-size="14.00">Audi A1 black</text>
</g>
<!-- Peugeot 208 red&#45;&gt;Audi A1 black -->
<g id="edge82" class="edge">
<title>Peugeot 208 red&#45;&gt;Audi A1 black</title>
<path fill="none" stroke="black" d="M490.97,-503.59C489.45,-479.61 486.69,-436.14 484.87,-407.42"/>
<polygon fill="black" stroke="black" points="488.37,-407.38 484.25,-397.62 481.39,-407.82 488.37,-407.38"/>
</g>
<!-- Alfa Romeo Giuletta white -->
<g id="node17" class="node">
<title>Alfa Romeo Giuletta white</title>
<ellipse fill="none" stroke="black" cx="425.07" cy="-306" rx="106.68" ry="18"/>
<text text-anchor="middle" x="425.07" y="-302.3" font-family="Times New Roman,serif" font-size="14.00">Alfa Romeo Giuletta white</text>
</g>
<!-- Peugeot 208 red&#45;&gt;Alfa Romeo Giuletta white -->
<g id="edge84" class="edge">
<title>Peugeot 208 red&#45;&gt;Alfa Romeo Giuletta white</title>
<path fill="none" stroke="black" d="M476.2,-504.06C456.23,-481.47 422.99,-439.27 410.07,-396 404.11,-376.05 408.38,-352.83 413.86,-335.11"/>
<polygon fill="black" stroke="black" points="417.13,-336.38 417.06,-325.78 410.51,-334.11 417.13,-336.38"/>
</g>
<!-- Audi A1 red -->
<g id="node21" class="node">
<title>Audi A1 red</title>
<ellipse fill="none" stroke="black" cx="659.07" cy="-378" rx="55.79" ry="18"/>
<text text-anchor="middle" x="659.07" y="-374.3" font-family="Times New Roman,serif" font-size="14.00">Audi A1 red</text>
</g>
<!-- Peugeot 208 red&#45;&gt;Audi A1 red -->
<g id="edge86" class="edge">
<title>Peugeot 208 red&#45;&gt;Audi A1 red</title>
<path fill="none" stroke="black" d="M511.55,-504.43C541.17,-479.25 597.65,-431.23 631.47,-402.46"/>
<polygon fill="black" stroke="black" points="633.46,-405.37 638.81,-396.22 628.93,-400.04 633.46,-405.37"/>
</g>
<!-- Audi A1 black&#45;&gt;Seat Ibiza 1.4 green -->
<g id="edge41" class="edge">
<title>Audi A1 black&#45;&gt;Seat Ibiza 1.4 green</title>
<path fill="none" stroke="black" d="M523.15,-363.57C577.78,-345.44 678.82,-312.6 766.07,-288 814.74,-274.28 870.19,-260.48 912.17,-250.4"/>
<polygon fill="black" stroke="black" points="912.98,-253.81 921.9,-248.08 911.36,-247 912.98,-253.81"/>
</g>
<!-- Audi A1 black&#45;&gt;Skoda Fabia grey -->
<g id="edge45" class="edge">
<title>Audi A1 black&#45;&gt;Skoda Fabia grey</title>
<path fill="none" stroke="black" d="M423.6,-371.12C359.95,-363.64 264.54,-348.66 238.07,-324 202.29,-290.67 198.57,-261.27 217.07,-216 221.53,-205.08 229.45,-195.2 237.78,-187"/>
<polygon fill="black" stroke="black" points="239.97,-189.73 245.01,-180.41 235.26,-184.56 239.97,-189.73"/>
</g>
<!-- Audi A1 black&#45;&gt;Nissan Note grey -->
<g id="edge38" class="edge">
<title>Audi A1 black&#45;&gt;Nissan Note grey</title>
<path fill="none" stroke="black" d="M536.58,-367.81C554.78,-364.95 575.27,-362.02 594.07,-360 723.13,-346.16 1059.92,-379.9 1177.07,-324 1196.66,-314.65 1193.1,-301.54 1210.07,-288 1225.47,-275.71 1244.06,-264.52 1260.56,-255.61"/>
<polygon fill="black" stroke="black" points="1261.95,-258.83 1269.17,-251.08 1258.7,-252.64 1261.95,-258.83"/>
</g>
<!-- Audi A1 black&#45;&gt;Volkswagen Polo 1.2 white -->
<g id="edge49" class="edge">
<title>Audi A1 black&#45;&gt;Volkswagen Polo 1.2 white</title>
<path fill="none" stroke="black" d="M501,-360.58C527.18,-336.65 573.68,-294.35 582.07,-288 605.96,-269.92 614.86,-269.66 639.07,-252 659.21,-237.31 659.48,-226.52 682.07,-216 739.6,-189.2 809.11,-175.88 866.74,-169.29"/>
<polygon fill="black" stroke="black" points="867.02,-172.78 876.59,-168.22 866.27,-165.82 867.02,-172.78"/>
</g>
<!-- Audi A1 black&#45;&gt;Toyota Yaris 1.0 white -->
<g id="edge53" class="edge">
<title>Audi A1 black&#45;&gt;Toyota Yaris 1.0 white</title>
<path fill="none" stroke="black" d="M512.22,-361.61C547.08,-343.38 607.32,-312.41 660.07,-288 684.72,-276.59 712.51,-264.71 735.62,-255.1"/>
<polygon fill="black" stroke="black" points="736.91,-258.35 744.81,-251.29 734.23,-251.88 736.91,-258.35"/>
</g>
<!-- Audi A1 black&#45;&gt;MINI Cooper 1.5 grey -->
<g id="edge56" class="edge">
<title>Audi A1 black&#45;&gt;MINI Cooper 1.5 grey</title>
<path fill="none" stroke="black" d="M419.34,-375.53C380.75,-370.93 334.26,-358 309.07,-324 299.54,-311.14 301.46,-302.07 309.07,-288 316.2,-274.81 328.21,-264.37 340.82,-256.37"/>
<polygon fill="black" stroke="black" points="342.33,-259.55 349.2,-251.49 338.8,-253.5 342.33,-259.55"/>
</g>
<!-- Audi A1 black&#45;&gt;Alfa Romeo Giuletta white -->
<g id="edge59" class="edge">
<title>Audi A1 black&#45;&gt;Alfa Romeo Giuletta white</title>
<path fill="none" stroke="black" d="M469.03,-360.05C462.29,-351.92 454.07,-342 446.56,-332.94"/>
<polygon fill="black" stroke="black" points="449.42,-330.91 440.35,-325.44 444.03,-335.37 449.42,-330.91"/>
</g>
<!-- Audi A1 black&#45;&gt;Jaguar xj red -->
<g id="edge61" class="edge">
<title>Audi A1 black&#45;&gt;Jaguar xj red</title>
<path fill="none" stroke="black" d="M420.31,-374.26C301.39,-368.42 52.78,-352.87 27.07,-324 -4.85,-288.15 11.02,-261.24 27.07,-216 30.73,-205.67 37.37,-195.88 44.34,-187.59"/>
<polygon fill="black" stroke="black" points="46.78,-190.11 50.91,-180.36 41.6,-185.41 46.78,-190.11"/>
</g>
<!-- Alfa Romeo Giuletta white&#45;&gt;Seat Ibiza 1.4 green -->
<g id="edge42" class="edge">
<title>Alfa Romeo Giuletta white&#45;&gt;Seat Ibiza 1.4 green</title>
<path fill="none" stroke="black" d="M516.69,-296.5C610.29,-287.34 759.68,-271.45 888.07,-252 894.51,-251.02 901.2,-249.92 907.89,-248.77"/>
<polygon fill="black" stroke="black" points="908.39,-252.23 917.62,-247.04 907.16,-245.34 908.39,-252.23"/>
</g>
<!-- Alfa Romeo Giuletta white&#45;&gt;Skoda Fabia grey -->
<g id="edge18" class="edge">
<title>Alfa Romeo Giuletta white&#45;&gt;Skoda Fabia grey</title>
<path fill="none" stroke="black" d="M354.66,-292.14C330.37,-284.35 305.03,-271.89 288.07,-252 273.87,-235.35 269.48,-210.68 268.43,-191.53"/>
<polygon fill="black" stroke="black" points="271.93,-191.59 268.19,-181.67 264.94,-191.75 271.93,-191.59"/>
</g>
<!-- Alfa Romeo Giuletta white&#45;&gt;MINI Cooper 1.6 blue -->
<g id="edge25" class="edge">
<title>Alfa Romeo Giuletta white&#45;&gt;MINI Cooper 1.6 blue</title>
<path fill="none" stroke="black" d="M450.32,-288.16C463.66,-278.53 479.76,-265.67 492.07,-252 530.03,-209.85 562.89,-151.94 580.46,-118.29"/>
<polygon fill="black" stroke="black" points="583.46,-120.11 584.92,-109.62 577.24,-116.91 583.46,-120.11"/>
</g>
<!-- Alfa Romeo Giuletta white&#45;&gt;Volkswagen Polo 1.2 white -->
<g id="edge50" class="edge">
<title>Alfa Romeo Giuletta white&#45;&gt;Volkswagen Polo 1.2 white</title>
<path fill="none" stroke="black" d="M489.86,-291.29C524.04,-282.63 566.04,-269.71 601.07,-252 624.87,-239.97 624.51,-226.4 649.07,-216 717.22,-187.13 799.28,-173.85 864.89,-167.8"/>
<polygon fill="black" stroke="black" points="864.94,-171.31 874.6,-166.95 864.33,-164.34 864.94,-171.31"/>
</g>
<!-- Alfa Romeo Giuletta white&#45;&gt;Toyota Yaris 1.0 white -->
<g id="edge54" class="edge">
<title>Alfa Romeo Giuletta white&#45;&gt;Toyota Yaris 1.0 white</title>
<path fill="none" stroke="black" d="M493.21,-291.75C554.93,-279.75 645.74,-262.09 709.63,-249.67"/>
<polygon fill="black" stroke="black" points="710.21,-253.12 719.35,-247.78 708.87,-246.25 710.21,-253.12"/>
</g>
<!-- Alfa Romeo Giuletta white&#45;&gt;Abarth Grande Punto white -->
<g id="edge33" class="edge">
<title>Alfa Romeo Giuletta white&#45;&gt;Abarth Grande Punto white</title>
<path fill="none" stroke="black" d="M353.98,-292.26C294.55,-277.16 214.86,-245.28 185.07,-180 178.43,-165.44 175.41,-156.76 185.07,-144 197.73,-127.27 242.07,-114.34 284.51,-105.43"/>
<polygon fill="black" stroke="black" points="284.94,-108.91 294.04,-103.5 283.55,-102.05 284.94,-108.91"/>
</g>
<!-- Alfa Romeo Giuletta white&#45;&gt;MINI Cooper 1.5 grey -->
<g id="edge57" class="edge">
<title>Alfa Romeo Giuletta white&#45;&gt;MINI Cooper 1.5 grey</title>
<path fill="none" stroke="black" d="M416.42,-287.7C412.6,-280.07 408.03,-270.92 403.77,-262.4"/>
<polygon fill="black" stroke="black" points="406.9,-260.84 399.3,-253.46 400.64,-263.97 406.9,-260.84"/>
</g>
<!-- Alfa Romeo Giuletta white&#45;&gt;Hyundai i20 white -->
<g id="edge16" class="edge">
<title>Alfa Romeo Giuletta white&#45;&gt;Hyundai i20 white</title>
<path fill="none" stroke="black" d="M455.3,-288.35C473.81,-278.06 497.93,-264.47 519.07,-252 600.57,-203.91 694.73,-144.98 744.67,-113.45"/>
<polygon fill="black" stroke="black" points="746.48,-116.45 753.06,-108.14 742.74,-110.53 746.48,-116.45"/>
</g>
<!-- Alfa Romeo Giuletta white&#45;&gt;Jaguar xj red -->
<g id="edge35" class="edge">
<title>Alfa Romeo Giuletta white&#45;&gt;Jaguar xj red</title>
<path fill="none" stroke="black" d="M337.31,-295.41C266.51,-286.44 173.53,-271.5 141.07,-252 116.4,-237.18 96.82,-210.42 84.52,-190.1"/>
<polygon fill="black" stroke="black" points="87.57,-188.37 79.53,-181.47 81.51,-191.88 87.57,-188.37"/>
</g>
<!-- Ford Fiesta blue -->
<g id="node19" class="node">
<title>Ford Fiesta blue</title>
<ellipse fill="none" stroke="black" cx="652.07" cy="-522" rx="70.39" ry="18"/>
<text text-anchor="middle" x="652.07" y="-518.3" font-family="Times New Roman,serif" font-size="14.00">Ford Fiesta blue</text>
</g>
<!-- Ford Fiesta blue&#45;&gt;Citroen DS3 red -->
<g id="edge79" class="edge">
<title>Ford Fiesta blue&#45;&gt;Citroen DS3 red</title>
<path fill="none" stroke="black" d="M684.99,-505.64C706.67,-495.52 735.3,-482.16 758.82,-471.18"/>
<polygon fill="black" stroke="black" points="760.27,-474.37 767.86,-466.97 757.31,-468.02 760.27,-474.37"/>
</g>
<!-- Ford Fiesta blue&#45;&gt;Audi A1 black -->
<g id="edge81" class="edge">
<title>Ford Fiesta blue&#45;&gt;Audi A1 black</title>
<path fill="none" stroke="black" d="M620.11,-505.66C601.88,-496.13 579.13,-482.88 561.07,-468 538.42,-449.33 516.76,-423.78 502.03,-404.85"/>
<polygon fill="black" stroke="black" points="504.96,-402.91 496.11,-397.08 499.39,-407.16 504.96,-402.91"/>
</g>
<!-- Ford Fiesta blue&#45;&gt;Alfa Romeo Giuletta white -->
<g id="edge83" class="edge">
<title>Ford Fiesta blue&#45;&gt;Alfa Romeo Giuletta white</title>
<path fill="none" stroke="black" d="M646.15,-503.98C634.1,-471.63 603.75,-400.88 556.07,-360 538.22,-344.7 515.39,-333.43 493.79,-325.31"/>
<polygon fill="black" stroke="black" points="495.01,-322.03 484.41,-321.97 492.66,-328.62 495.01,-322.03"/>
</g>
<!-- Ford Fiesta blue&#45;&gt;Audi A1 red -->
<g id="edge85" class="edge">
<title>Ford Fiesta blue&#45;&gt;Audi A1 red</title>
<path fill="none" stroke="black" d="M652.93,-503.59C654.11,-479.61 656.25,-436.14 657.67,-407.42"/>
<polygon fill="black" stroke="black" points="661.15,-407.78 658.15,-397.62 654.16,-407.44 661.15,-407.78"/>
</g>
<!-- Audi A1 red&#45;&gt;Seat Ibiza 1.4 green -->
<g id="edge43" class="edge">
<title>Audi A1 red&#45;&gt;Seat Ibiza 1.4 green</title>
<path fill="none" stroke="black" d="M689.32,-362.41C726.82,-344.43 792.8,-313.18 850.07,-288 876.03,-276.58 905.24,-264.43 929.19,-254.65"/>
<polygon fill="black" stroke="black" points="930.45,-257.92 938.4,-250.91 927.82,-251.44 930.45,-257.92"/>
</g>
<!-- Audi A1 red&#45;&gt;Skoda Fabia grey -->
<g id="edge46" class="edge">
<title>Audi A1 red&#45;&gt;Skoda Fabia grey</title>
<path fill="none" stroke="black" d="M610.37,-368.77C593.22,-365.92 573.8,-362.75 556.07,-360 446.45,-342.97 400.7,-386.54 309.07,-324 278.65,-303.24 277.49,-287.6 268.07,-252 263.97,-236.53 267.92,-232 268.07,-216 268.14,-208.06 268.28,-199.44 268.43,-191.51"/>
<polygon fill="black" stroke="black" points="271.93,-191.77 268.63,-181.7 264.93,-191.62 271.93,-191.77"/>
</g>
<!-- Audi A1 red&#45;&gt;Nissan Note grey -->
<g id="edge39" class="edge">
<title>Audi A1 red&#45;&gt;Nissan Note grey</title>
<path fill="none" stroke="black" d="M713.48,-373.8C843.66,-365.84 1165.62,-344.37 1210.07,-324 1240.55,-310.03 1267.24,-281.87 1284.12,-260.95"/>
<polygon fill="black" stroke="black" points="1286.84,-263.15 1290.23,-253.11 1281.32,-258.85 1286.84,-263.15"/>
</g>
<!-- Audi A1 red&#45;&gt;Volkswagen Polo 1.2 white -->
<g id="edge51" class="edge">
<title>Audi A1 red&#45;&gt;Volkswagen Polo 1.2 white</title>
<path fill="none" stroke="black" d="M703.12,-366.69C804.36,-342.57 1046.7,-282.2 1069.07,-252 1078.59,-239.14 1076.9,-229.95 1069.07,-216 1061.47,-202.48 1048.87,-192 1035.58,-184.06"/>
<polygon fill="black" stroke="black" points="1037.62,-181.19 1027.17,-179.46 1034.26,-187.33 1037.62,-181.19"/>
</g>
<!-- Audi A1 red&#45;&gt;Toyota Yaris 1.0 white -->
<g id="edge55" class="edge">
<title>Audi A1 red&#45;&gt;Toyota Yaris 1.0 white</title>
<path fill="none" stroke="black" d="M673.77,-360.43C695.65,-335.77 736.97,-289.2 762.65,-260.27"/>
<polygon fill="black" stroke="black" points="765.05,-262.84 769.07,-253.03 759.81,-258.19 765.05,-262.84"/>
</g>
<!-- Audi A1 red&#45;&gt;MINI Cooper 1.5 grey -->
<g id="edge58" class="edge">
<title>Audi A1 red&#45;&gt;MINI Cooper 1.5 grey</title>
<path fill="none" stroke="black" d="M641.08,-360.59C618.94,-341.09 579.52,-308.6 541.07,-288 513.72,-273.35 481.5,-261.39 453.86,-252.57"/>
<polygon fill="black" stroke="black" points="455.15,-249.31 444.56,-249.67 453.07,-255.99 455.15,-249.31"/>
</g>
<!-- Audi A1 red&#45;&gt;Alfa Romeo Giuletta white -->
<g id="edge60" class="edge">
<title>Audi A1 red&#45;&gt;Alfa Romeo Giuletta white</title>
<path fill="none" stroke="black" d="M619.11,-365.05C582.8,-354.18 528.68,-337.99 486.81,-325.47"/>
<polygon fill="black" stroke="black" points="487.93,-322.15 477.35,-322.64 485.93,-328.86 487.93,-322.15"/>
</g>
<!-- Audi A1 red&#45;&gt;Jaguar xj red -->
<g id="edge62" class="edge">
<title>Audi A1 red&#45;&gt;Jaguar xj red</title>
<path fill="none" stroke="black" d="M610.66,-368.64C593.44,-365.76 573.91,-362.61 556.07,-360 431.49,-341.75 396.82,-356.11 275.07,-324 193.35,-302.45 156.6,-313.91 99.07,-252 83.68,-235.44 76.45,-210.59 73.06,-191.36"/>
<polygon fill="black" stroke="black" points="76.56,-191.1 71.63,-181.73 69.64,-192.13 76.56,-191.1"/>
</g>
<!-- Jaguar xj red&#45;&gt;MINI Cooper 1.6 blue -->
<g id="edge26" class="edge">
<title>Jaguar xj red&#45;&gt;MINI Cooper 1.6 blue</title>
<path fill="none" stroke="black" d="M120.12,-153.27C140.28,-150.24 163.76,-146.82 185.07,-144 321.26,-125.95 356.05,-127.3 492.07,-108 499.74,-106.91 507.72,-105.71 515.7,-104.46"/>
<polygon fill="black" stroke="black" points="516.11,-107.93 525.43,-102.9 515.01,-101.02 516.11,-107.93"/>
</g>
<!-- Jaguar xj red&#45;&gt;Abarth Grande Punto white -->
<g id="edge34" class="edge">
<title>Jaguar xj red&#45;&gt;Abarth Grande Punto white</title>
<path fill="none" stroke="black" d="M113.99,-150.41C122.94,-148.27 132.31,-146.05 141.07,-144 193.84,-131.65 253.45,-118.04 299.03,-107.71"/>
<polygon fill="black" stroke="black" points="299.55,-111.18 308.53,-105.55 298.01,-104.35 299.55,-111.18"/>
</g>
<!-- Jaguar xj red&#45;&gt;Toyota Prius black -->
<g id="edge5" class="edge">
<title>Jaguar xj red&#45;&gt;Toyota Prius black</title>
<path fill="none" stroke="black" d="M78.3,-143.83C88.67,-123.89 108.32,-91.27 134.07,-72 157.92,-54.15 188.28,-41.96 215.52,-33.81"/>
<polygon fill="black" stroke="black" points="216.45,-37.18 225.11,-31.08 214.54,-30.45 216.45,-37.18"/>
</g>
<!-- Jaguar xj red&#45;&gt;Mercedes w116 brown -->
<g id="edge10" class="edge">
<title>Jaguar xj red&#45;&gt;Mercedes w116 brown</title>
<path fill="none" stroke="black" d="M95.07,-145.45C127.74,-125.76 187.26,-91.98 242.07,-72 291.44,-54 348.95,-40.9 394.72,-32.23"/>
<polygon fill="black" stroke="black" points="395.11,-35.72 404.31,-30.45 393.84,-28.83 395.11,-35.72"/>
</g>
</g>
</svg>
